G04 #@! TF.GenerationSoftware,KiCad,Pcbnew,(5.0.1)-4*
G04 #@! TF.CreationDate,2021-02-28T01:00:44+01:00*
G04 #@! TF.ProjectId,ringlight66,72696E676C6967687436362E6B696361,rev?*
G04 #@! TF.SameCoordinates,Original*
G04 #@! TF.FileFunction,Soldermask,Top*
G04 #@! TF.FilePolarity,Negative*
%FSLAX46Y46*%
G04 Gerber Fmt 4.6, Leading zero omitted, Abs format (unit mm)*
G04 Created by KiCad (PCBNEW (5.0.1)-4) date 28.02.2021 01:00:44*
%MOMM*%
%LPD*%
G01*
G04 APERTURE LIST*
%ADD10C,0.100000*%
G04 APERTURE END LIST*
D10*
G36*
X100775562Y-128728181D02*
X100810477Y-128738773D01*
X100842665Y-128755978D01*
X100870873Y-128779127D01*
X100894022Y-128807335D01*
X100911227Y-128839523D01*
X100921819Y-128874438D01*
X100926000Y-128916895D01*
X100926000Y-130058105D01*
X100921819Y-130100562D01*
X100911227Y-130135477D01*
X100894022Y-130167665D01*
X100870873Y-130195873D01*
X100842665Y-130219022D01*
X100810477Y-130236227D01*
X100775562Y-130246819D01*
X100733105Y-130251000D01*
X99266895Y-130251000D01*
X99224438Y-130246819D01*
X99189523Y-130236227D01*
X99157335Y-130219022D01*
X99129127Y-130195873D01*
X99105978Y-130167665D01*
X99088773Y-130135477D01*
X99078181Y-130100562D01*
X99074000Y-130058105D01*
X99074000Y-128916895D01*
X99078181Y-128874438D01*
X99088773Y-128839523D01*
X99105978Y-128807335D01*
X99129127Y-128779127D01*
X99157335Y-128755978D01*
X99189523Y-128738773D01*
X99224438Y-128728181D01*
X99266895Y-128724000D01*
X100733105Y-128724000D01*
X100775562Y-128728181D01*
X100775562Y-128728181D01*
G37*
G36*
X98148347Y-124306486D02*
X98176693Y-124312150D01*
X97470895Y-127844324D01*
X97470894Y-127844324D01*
X94919335Y-127334472D01*
X95182613Y-126016895D01*
X95625133Y-123802298D01*
X95625134Y-123802298D01*
X98148347Y-124306486D01*
X98148347Y-124306486D01*
G37*
G36*
X105077463Y-127334488D02*
X102525017Y-127839887D01*
X101825385Y-124306486D01*
X104377831Y-123801087D01*
X105077463Y-127334488D01*
X105077463Y-127334488D01*
G37*
G36*
X100775562Y-125753181D02*
X100810477Y-125763773D01*
X100842665Y-125780978D01*
X100870873Y-125804127D01*
X100894022Y-125832335D01*
X100911227Y-125864523D01*
X100921819Y-125899438D01*
X100926000Y-125941895D01*
X100926000Y-127083105D01*
X100921819Y-127125562D01*
X100911227Y-127160477D01*
X100894022Y-127192665D01*
X100870873Y-127220873D01*
X100842665Y-127244022D01*
X100810477Y-127261227D01*
X100775562Y-127271819D01*
X100733105Y-127276000D01*
X99266895Y-127276000D01*
X99224438Y-127271819D01*
X99189523Y-127261227D01*
X99157335Y-127244022D01*
X99129127Y-127220873D01*
X99105978Y-127192665D01*
X99088773Y-127160477D01*
X99078181Y-127125562D01*
X99074000Y-127083105D01*
X99074000Y-125941895D01*
X99078181Y-125899438D01*
X99088773Y-125864523D01*
X99105978Y-125832335D01*
X99129127Y-125804127D01*
X99157335Y-125780978D01*
X99189523Y-125763773D01*
X99224438Y-125753181D01*
X99266895Y-125749000D01*
X100733105Y-125749000D01*
X100775562Y-125753181D01*
X100775562Y-125753181D01*
G37*
G36*
X108314615Y-126693514D02*
X105762169Y-127198913D01*
X105062537Y-123665512D01*
X107614983Y-123160113D01*
X108314615Y-126693514D01*
X108314615Y-126693514D01*
G37*
G36*
X94940585Y-123665512D02*
X94940665Y-123665528D01*
X94234867Y-127197702D01*
X94234866Y-127197702D01*
X91683307Y-126687850D01*
X91817377Y-126016895D01*
X92389105Y-123155676D01*
X92389106Y-123155676D01*
X94940585Y-123665512D01*
X94940585Y-123665512D01*
G37*
G36*
X89014123Y-121765025D02*
X89014123Y-121765026D01*
X87010346Y-124758232D01*
X84848125Y-123310751D01*
X84848125Y-123310750D01*
X86851902Y-120317544D01*
X89014123Y-121765025D01*
X89014123Y-121765025D01*
G37*
G36*
X115148923Y-123311989D02*
X115148923Y-123311990D01*
X112984179Y-124755695D01*
X110985629Y-121758997D01*
X110985629Y-121758996D01*
X113150373Y-120315291D01*
X115148923Y-123311989D01*
X115148923Y-123311989D01*
G37*
G36*
X117894371Y-121481003D02*
X117894371Y-121481004D01*
X115729627Y-122924709D01*
X113731077Y-119928011D01*
X113731077Y-119928010D01*
X115895821Y-118484305D01*
X117894371Y-121481003D01*
X117894371Y-121481003D01*
G37*
G36*
X86271875Y-119929249D02*
X86271875Y-119929250D01*
X84268098Y-122922456D01*
X82105877Y-121474975D01*
X82105877Y-121474974D01*
X84109654Y-118481768D01*
X86271875Y-119929249D01*
X86271875Y-119929249D01*
G37*
G36*
X81404857Y-115729627D02*
X81515695Y-115895821D01*
X78518997Y-117894371D01*
X78518996Y-117894371D01*
X77075291Y-115729627D01*
X77946020Y-115148923D01*
X80071989Y-113731077D01*
X80071990Y-113731077D01*
X81404857Y-115729627D01*
X81404857Y-115729627D01*
G37*
G36*
X122051612Y-115148923D02*
X122922456Y-115731902D01*
X121474975Y-117894123D01*
X121474974Y-117894123D01*
X118481768Y-115890346D01*
X118589360Y-115729627D01*
X119929249Y-113728125D01*
X119929250Y-113728125D01*
X122051612Y-115148923D01*
X122051612Y-115148923D01*
G37*
G36*
X124750054Y-112984179D02*
X124758232Y-112989654D01*
X123310751Y-115151875D01*
X123310750Y-115151875D01*
X120317544Y-113148098D01*
X120427278Y-112984179D01*
X121765025Y-110985877D01*
X121765026Y-110985877D01*
X124750054Y-112984179D01*
X124750054Y-112984179D01*
G37*
G36*
X79573871Y-112984179D02*
X79684709Y-113150373D01*
X76688011Y-115148923D01*
X76688010Y-115148923D01*
X75244305Y-112984179D01*
X78241003Y-110985629D01*
X78241004Y-110985629D01*
X79573871Y-112984179D01*
X79573871Y-112984179D01*
G37*
G36*
X131916954Y-103898841D02*
X130925970Y-108903675D01*
X127883046Y-108301159D01*
X128874030Y-103296325D01*
X131916954Y-103898841D01*
X131916954Y-103898841D01*
G37*
G36*
X127197702Y-105765133D02*
X127197702Y-105765134D01*
X126690954Y-108301159D01*
X126687850Y-108316693D01*
X123155676Y-107610895D01*
X123665528Y-105059335D01*
X127197702Y-105765133D01*
X127197702Y-105765133D01*
G37*
G36*
X76839887Y-107614983D02*
X73306486Y-108314615D01*
X72801087Y-105762169D01*
X76334488Y-105062537D01*
X76839887Y-107614983D01*
X76839887Y-107614983D01*
G37*
G36*
X127844324Y-102529105D02*
X127334472Y-105080665D01*
X123802298Y-104374867D01*
X124171935Y-102525017D01*
X124312150Y-101823307D01*
X127844324Y-102529105D01*
X127844324Y-102529105D01*
G37*
G36*
X76198913Y-104377831D02*
X72665512Y-105077463D01*
X72160113Y-102525017D01*
X75693514Y-101825385D01*
X76198913Y-104377831D01*
X76198913Y-104377831D01*
G37*
G36*
X76197702Y-95625133D02*
X76197702Y-95625134D01*
X75687850Y-98176693D01*
X72155676Y-97470895D01*
X72665528Y-94919335D01*
X76197702Y-95625133D01*
X76197702Y-95625133D01*
G37*
G36*
X127839887Y-97474983D02*
X124306486Y-98174615D01*
X123801087Y-95622169D01*
X127334488Y-94922537D01*
X127839887Y-97474983D01*
X127839887Y-97474983D01*
G37*
G36*
X131916954Y-96201159D02*
X128874030Y-96803675D01*
X127883046Y-91798841D01*
X130925970Y-91196325D01*
X131916954Y-96201159D01*
X131916954Y-96201159D01*
G37*
G36*
X76844324Y-92389105D02*
X76334472Y-94940665D01*
X72802298Y-94234867D01*
X73171935Y-92385017D01*
X73312150Y-91683307D01*
X76844324Y-92389105D01*
X76844324Y-92389105D01*
G37*
G36*
X127198913Y-94237831D02*
X123665512Y-94937463D01*
X123160113Y-92385017D01*
X126693514Y-91685385D01*
X127198913Y-94237831D01*
X127198913Y-94237831D01*
G37*
G36*
X124644857Y-86849627D02*
X124755695Y-87015821D01*
X121758997Y-89014371D01*
X121758996Y-89014371D01*
X120315291Y-86849627D01*
X121186020Y-86268923D01*
X123311989Y-84851077D01*
X123311990Y-84851077D01*
X124644857Y-86849627D01*
X124644857Y-86849627D01*
G37*
G36*
X78811612Y-86268923D02*
X79682456Y-86851902D01*
X78234975Y-89014123D01*
X78234974Y-89014123D01*
X75241768Y-87010346D01*
X75349360Y-86849627D01*
X76689249Y-84848125D01*
X76689250Y-84848125D01*
X78811612Y-86268923D01*
X78811612Y-86268923D01*
G37*
G36*
X81510054Y-84104179D02*
X81518232Y-84109654D01*
X80070751Y-86271875D01*
X80070750Y-86271875D01*
X77077544Y-84268098D01*
X77187278Y-84104179D01*
X78525025Y-82105877D01*
X78525026Y-82105877D01*
X81510054Y-84104179D01*
X81510054Y-84104179D01*
G37*
G36*
X122813871Y-84104179D02*
X122924709Y-84270373D01*
X119928011Y-86268923D01*
X119928010Y-86268923D01*
X118484305Y-84104179D01*
X121481003Y-82105629D01*
X121481004Y-82105629D01*
X122813871Y-84104179D01*
X122813871Y-84104179D01*
G37*
G36*
X117894123Y-78525025D02*
X117894123Y-78525026D01*
X115890346Y-81518232D01*
X113728125Y-80070751D01*
X113728125Y-80070750D01*
X115731902Y-77077544D01*
X117894123Y-78525025D01*
X117894123Y-78525025D01*
G37*
G36*
X86268923Y-80071989D02*
X86268923Y-80071990D01*
X84104179Y-81515695D01*
X82105629Y-78518997D01*
X82105629Y-78518996D01*
X84270373Y-77075291D01*
X86268923Y-80071989D01*
X86268923Y-80071989D01*
G37*
G36*
X89014371Y-78241003D02*
X89014371Y-78241004D01*
X86849627Y-79684709D01*
X84851077Y-76688011D01*
X84851077Y-76688010D01*
X87015821Y-75244305D01*
X89014371Y-78241003D01*
X89014371Y-78241003D01*
G37*
G36*
X115151875Y-76689249D02*
X115151875Y-76689250D01*
X113148098Y-79682456D01*
X110985877Y-78234975D01*
X110985877Y-78234974D01*
X112989654Y-75241768D01*
X115151875Y-76689249D01*
X115151875Y-76689249D01*
G37*
G36*
X108288347Y-73306486D02*
X108316693Y-73312150D01*
X107610895Y-76844324D01*
X107610894Y-76844324D01*
X105059335Y-76334472D01*
X105475654Y-74251000D01*
X105765133Y-72802298D01*
X105765134Y-72802298D01*
X108288347Y-73306486D01*
X108288347Y-73306486D01*
G37*
G36*
X94937463Y-76334488D02*
X92385017Y-76839887D01*
X91685385Y-73306486D01*
X94237831Y-72801087D01*
X94937463Y-76334488D01*
X94937463Y-76334488D01*
G37*
G36*
X98174615Y-75693514D02*
X95622169Y-76198913D01*
X94922537Y-72665512D01*
X97474983Y-72160113D01*
X98174615Y-75693514D01*
X98174615Y-75693514D01*
G37*
G36*
X105080585Y-72665512D02*
X105080665Y-72665528D01*
X104374867Y-76197702D01*
X104374866Y-76197702D01*
X101823307Y-75687850D01*
X102110418Y-74251000D01*
X102529105Y-72155676D01*
X102529106Y-72155676D01*
X105080585Y-72665512D01*
X105080585Y-72665512D01*
G37*
G36*
X100775562Y-72728181D02*
X100810477Y-72738773D01*
X100842665Y-72755978D01*
X100870873Y-72779127D01*
X100894022Y-72807335D01*
X100911227Y-72839523D01*
X100921819Y-72874438D01*
X100926000Y-72916895D01*
X100926000Y-74058105D01*
X100921819Y-74100562D01*
X100911227Y-74135477D01*
X100894022Y-74167665D01*
X100870873Y-74195873D01*
X100842665Y-74219022D01*
X100810477Y-74236227D01*
X100775562Y-74246819D01*
X100733105Y-74251000D01*
X99266895Y-74251000D01*
X99224438Y-74246819D01*
X99189523Y-74236227D01*
X99157335Y-74219022D01*
X99129127Y-74195873D01*
X99105978Y-74167665D01*
X99088773Y-74135477D01*
X99078181Y-74100562D01*
X99074000Y-74058105D01*
X99074000Y-72916895D01*
X99078181Y-72874438D01*
X99088773Y-72839523D01*
X99105978Y-72807335D01*
X99129127Y-72779127D01*
X99157335Y-72755978D01*
X99189523Y-72738773D01*
X99224438Y-72728181D01*
X99266895Y-72724000D01*
X100733105Y-72724000D01*
X100775562Y-72728181D01*
X100775562Y-72728181D01*
G37*
G36*
X100775562Y-69753181D02*
X100810477Y-69763773D01*
X100842665Y-69780978D01*
X100870873Y-69804127D01*
X100894022Y-69832335D01*
X100911227Y-69864523D01*
X100921819Y-69899438D01*
X100926000Y-69941895D01*
X100926000Y-71083105D01*
X100921819Y-71125562D01*
X100911227Y-71160477D01*
X100894022Y-71192665D01*
X100870873Y-71220873D01*
X100842665Y-71244022D01*
X100810477Y-71261227D01*
X100775562Y-71271819D01*
X100733105Y-71276000D01*
X99266895Y-71276000D01*
X99224438Y-71271819D01*
X99189523Y-71261227D01*
X99157335Y-71244022D01*
X99129127Y-71220873D01*
X99105978Y-71192665D01*
X99088773Y-71160477D01*
X99078181Y-71125562D01*
X99074000Y-71083105D01*
X99074000Y-69941895D01*
X99078181Y-69899438D01*
X99088773Y-69864523D01*
X99105978Y-69832335D01*
X99129127Y-69804127D01*
X99157335Y-69780978D01*
X99189523Y-69763773D01*
X99224438Y-69753181D01*
X99266895Y-69749000D01*
X100733105Y-69749000D01*
X100775562Y-69753181D01*
X100775562Y-69753181D01*
G37*
M02*
