G04 #@! TF.GenerationSoftware,KiCad,Pcbnew,(5.0.1)-4*
G04 #@! TF.CreationDate,2021-02-28T01:00:44+01:00*
G04 #@! TF.ProjectId,ringlight66,72696E676C6967687436362E6B696361,rev?*
G04 #@! TF.SameCoordinates,Original*
G04 #@! TF.FileFunction,Copper,L1,Top,Signal*
G04 #@! TF.FilePolarity,Positive*
%FSLAX46Y46*%
G04 Gerber Fmt 4.6, Leading zero omitted, Abs format (unit mm)*
G04 Created by KiCad (PCBNEW (5.0.1)-4) date 28.02.2021 01:00:44*
%MOMM*%
%LPD*%
G01*
G04 APERTURE LIST*
G04 #@! TA.AperFunction,SMDPad,CuDef*
%ADD10C,2.500000*%
G04 #@! TD*
G04 #@! TA.AperFunction,Conductor*
%ADD11C,0.100000*%
G04 #@! TD*
G04 #@! TA.AperFunction,SMDPad,CuDef*
%ADD12C,1.425000*%
G04 #@! TD*
G04 #@! TA.AperFunction,SMDPad,CuDef*
%ADD13C,3.000000*%
G04 #@! TD*
G04 #@! TA.AperFunction,Conductor*
%ADD14C,1.000000*%
G04 #@! TD*
G04 #@! TA.AperFunction,Conductor*
%ADD15C,3.000000*%
G04 #@! TD*
G04 #@! TA.AperFunction,Conductor*
%ADD16C,0.500000*%
G04 #@! TD*
G04 #@! TA.AperFunction,NonConductor*
%ADD17C,0.254000*%
G04 #@! TD*
G04 APERTURE END LIST*
D10*
G04 #@! TO.P,D16,2*
G04 #@! TO.N,Net-(D14-Pad1)*
X106688014Y-74823311D03*
D11*
G04 #@! TD*
G04 #@! TO.N,Net-(D14-Pad1)*
G04 #@! TO.C,D16*
G36*
X105119340Y-76294454D02*
X105805151Y-72862303D01*
X108256688Y-73352168D01*
X107570877Y-76784319D01*
X105119340Y-76294454D01*
X105119340Y-76294454D01*
G37*
D10*
G04 #@! TO.P,D16,1*
G04 #@! TO.N,Net-(D16-Pad1)*
X103451986Y-74176689D03*
D11*
G04 #@! TD*
G04 #@! TO.N,Net-(D16-Pad1)*
G04 #@! TO.C,D16*
G36*
X101883312Y-75647832D02*
X102569123Y-72215681D01*
X105020660Y-72705546D01*
X104334849Y-76137697D01*
X101883312Y-75647832D01*
X101883312Y-75647832D01*
G37*
D10*
G04 #@! TO.P,D1,2*
G04 #@! TO.N,Net-(D1-Pad2)*
X96548014Y-125823311D03*
D11*
G04 #@! TD*
G04 #@! TO.N,Net-(D1-Pad2)*
G04 #@! TO.C,D1*
G36*
X94979340Y-127294454D02*
X95665151Y-123862303D01*
X98116688Y-124352168D01*
X97430877Y-127784319D01*
X94979340Y-127294454D01*
X94979340Y-127294454D01*
G37*
D10*
G04 #@! TO.P,D1,1*
G04 #@! TO.N,Net-(D1-Pad1)*
X93311986Y-125176689D03*
D11*
G04 #@! TD*
G04 #@! TO.N,Net-(D1-Pad1)*
G04 #@! TO.C,D1*
G36*
X91743312Y-126647832D02*
X92429123Y-123215681D01*
X94880660Y-123705546D01*
X94194849Y-127137697D01*
X91743312Y-126647832D01*
X91743312Y-126647832D01*
G37*
D10*
G04 #@! TO.P,D2,2*
G04 #@! TO.N,Net-(D2-Pad2)*
X103451424Y-125820487D03*
D11*
G04 #@! TD*
G04 #@! TO.N,Net-(D2-Pad2)*
G04 #@! TO.C,D2*
G36*
X104337708Y-123861023D02*
X105017528Y-127294366D01*
X102565140Y-127779951D01*
X101885320Y-124346608D01*
X104337708Y-123861023D01*
X104337708Y-123861023D01*
G37*
D10*
G04 #@! TO.P,D2,1*
G04 #@! TO.N,Net-(D2-Pad1)*
X106688576Y-125179513D03*
D11*
G04 #@! TD*
G04 #@! TO.N,Net-(D2-Pad1)*
G04 #@! TO.C,D2*
G36*
X107574860Y-123220049D02*
X108254680Y-126653392D01*
X105802292Y-127138977D01*
X105122472Y-123705634D01*
X107574860Y-123220049D01*
X107574860Y-123220049D01*
G37*
D10*
G04 #@! TO.P,D3,2*
G04 #@! TO.N,Net-(D1-Pad1)*
X86931124Y-122537888D03*
D11*
G04 #@! TD*
G04 #@! TO.N,Net-(D1-Pad1)*
G04 #@! TO.C,D3*
G36*
X84918876Y-123296741D02*
X86865911Y-120388296D01*
X88943372Y-121779035D01*
X86996337Y-124687480D01*
X84918876Y-123296741D01*
X84918876Y-123296741D01*
G37*
D10*
G04 #@! TO.P,D3,1*
G04 #@! TO.N,Net-(D3-Pad1)*
X84188876Y-120702112D03*
D11*
G04 #@! TD*
G04 #@! TO.N,Net-(D3-Pad1)*
G04 #@! TO.C,D3*
G36*
X82176628Y-121460965D02*
X84123663Y-118552520D01*
X86201124Y-119943259D01*
X84254089Y-122851704D01*
X82176628Y-121460965D01*
X82176628Y-121460965D01*
G37*
D10*
G04 #@! TO.P,D4,2*
G04 #@! TO.N,Net-(D2-Pad1)*
X113067276Y-122535493D03*
D11*
G04 #@! TD*
G04 #@! TO.N,Net-(D2-Pad1)*
G04 #@! TO.C,D4*
G36*
X113136241Y-120386018D02*
X115078196Y-123297857D01*
X112998311Y-124684968D01*
X111056356Y-121773129D01*
X113136241Y-120386018D01*
X113136241Y-120386018D01*
G37*
D10*
G04 #@! TO.P,D4,1*
G04 #@! TO.N,Net-(D4-Pad1)*
X115812724Y-120704507D03*
D11*
G04 #@! TD*
G04 #@! TO.N,Net-(D4-Pad1)*
G04 #@! TO.C,D4*
G36*
X115881689Y-118555032D02*
X117823644Y-121466871D01*
X115743759Y-122853982D01*
X113801804Y-119942143D01*
X115881689Y-118555032D01*
X115881689Y-118555032D01*
G37*
D10*
G04 #@! TO.P,D5,2*
G04 #@! TO.N,Net-(D3-Pad1)*
X79295493Y-115812724D03*
D11*
G04 #@! TD*
G04 #@! TO.N,Net-(D3-Pad1)*
G04 #@! TO.C,D5*
G36*
X77146018Y-115743759D02*
X80057857Y-113801804D01*
X81444968Y-115881689D01*
X78533129Y-117823644D01*
X77146018Y-115743759D01*
X77146018Y-115743759D01*
G37*
D10*
G04 #@! TO.P,D5,1*
G04 #@! TO.N,Net-(D5-Pad1)*
X77464507Y-113067276D03*
D11*
G04 #@! TD*
G04 #@! TO.N,Net-(D5-Pad1)*
G04 #@! TO.C,D5*
G36*
X75315032Y-112998311D02*
X78226871Y-111056356D01*
X79613982Y-113136241D01*
X76702143Y-115078196D01*
X75315032Y-112998311D01*
X75315032Y-112998311D01*
G37*
D10*
G04 #@! TO.P,D6,2*
G04 #@! TO.N,Net-(D4-Pad1)*
X120702112Y-115811124D03*
D11*
G04 #@! TD*
G04 #@! TO.N,Net-(D4-Pad1)*
G04 #@! TO.C,D6*
G36*
X119943259Y-113798876D02*
X122851704Y-115745911D01*
X121460965Y-117823372D01*
X118552520Y-115876337D01*
X119943259Y-113798876D01*
X119943259Y-113798876D01*
G37*
D10*
G04 #@! TO.P,D6,1*
G04 #@! TO.N,Net-(D6-Pad1)*
X122537888Y-113068876D03*
D11*
G04 #@! TD*
G04 #@! TO.N,Net-(D6-Pad1)*
G04 #@! TO.C,D6*
G36*
X121779035Y-111056628D02*
X124687480Y-113003663D01*
X123296741Y-115081124D01*
X120388296Y-113134089D01*
X121779035Y-111056628D01*
X121779035Y-111056628D01*
G37*
D10*
G04 #@! TO.P,D7,2*
G04 #@! TO.N,Net-(D5-Pad1)*
X74820487Y-106688576D03*
D11*
G04 #@! TD*
G04 #@! TO.N,Net-(D5-Pad1)*
G04 #@! TO.C,D7*
G36*
X72861023Y-105802292D02*
X76294366Y-105122472D01*
X76779951Y-107574860D01*
X73346608Y-108254680D01*
X72861023Y-105802292D01*
X72861023Y-105802292D01*
G37*
D10*
G04 #@! TO.P,D7,1*
G04 #@! TO.N,Net-(D7-Pad1)*
X74179513Y-103451424D03*
D11*
G04 #@! TD*
G04 #@! TO.N,Net-(D7-Pad1)*
G04 #@! TO.C,D7*
G36*
X72220049Y-102565140D02*
X75653392Y-101885320D01*
X76138977Y-104337708D01*
X72705634Y-105017528D01*
X72220049Y-102565140D01*
X72220049Y-102565140D01*
G37*
D10*
G04 #@! TO.P,D8,2*
G04 #@! TO.N,Net-(D6-Pad1)*
X125176689Y-106688014D03*
D11*
G04 #@! TD*
G04 #@! TO.N,Net-(D6-Pad1)*
G04 #@! TO.C,D8*
G36*
X123705546Y-105119340D02*
X127137697Y-105805151D01*
X126647832Y-108256688D01*
X123215681Y-107570877D01*
X123705546Y-105119340D01*
X123705546Y-105119340D01*
G37*
D10*
G04 #@! TO.P,D8,1*
G04 #@! TO.N,Net-(D10-Pad2)*
X125823311Y-103451986D03*
D11*
G04 #@! TD*
G04 #@! TO.N,Net-(D10-Pad2)*
G04 #@! TO.C,D8*
G36*
X124352168Y-101883312D02*
X127784319Y-102569123D01*
X127294454Y-105020660D01*
X123862303Y-104334849D01*
X124352168Y-101883312D01*
X124352168Y-101883312D01*
G37*
D10*
G04 #@! TO.P,D9,2*
G04 #@! TO.N,Net-(D7-Pad1)*
X74176689Y-96548014D03*
D11*
G04 #@! TD*
G04 #@! TO.N,Net-(D7-Pad1)*
G04 #@! TO.C,D9*
G36*
X72705546Y-94979340D02*
X76137697Y-95665151D01*
X75647832Y-98116688D01*
X72215681Y-97430877D01*
X72705546Y-94979340D01*
X72705546Y-94979340D01*
G37*
D10*
G04 #@! TO.P,D9,1*
G04 #@! TO.N,Net-(D11-Pad2)*
X74823311Y-93311986D03*
D11*
G04 #@! TD*
G04 #@! TO.N,Net-(D11-Pad2)*
G04 #@! TO.C,D9*
G36*
X73352168Y-91743312D02*
X76784319Y-92429123D01*
X76294454Y-94880660D01*
X72862303Y-94194849D01*
X73352168Y-91743312D01*
X73352168Y-91743312D01*
G37*
D10*
G04 #@! TO.P,D10,2*
G04 #@! TO.N,Net-(D10-Pad2)*
X125820487Y-96548576D03*
D11*
G04 #@! TD*
G04 #@! TO.N,Net-(D10-Pad2)*
G04 #@! TO.C,D10*
G36*
X123861023Y-95662292D02*
X127294366Y-94982472D01*
X127779951Y-97434860D01*
X124346608Y-98114680D01*
X123861023Y-95662292D01*
X123861023Y-95662292D01*
G37*
D10*
G04 #@! TO.P,D10,1*
G04 #@! TO.N,Net-(D10-Pad1)*
X125179513Y-93311424D03*
D11*
G04 #@! TD*
G04 #@! TO.N,Net-(D10-Pad1)*
G04 #@! TO.C,D10*
G36*
X123220049Y-92425140D02*
X126653392Y-91745320D01*
X127138977Y-94197708D01*
X123705634Y-94877528D01*
X123220049Y-92425140D01*
X123220049Y-92425140D01*
G37*
D10*
G04 #@! TO.P,D11,2*
G04 #@! TO.N,Net-(D11-Pad2)*
X77462112Y-86931124D03*
D11*
G04 #@! TD*
G04 #@! TO.N,Net-(D11-Pad2)*
G04 #@! TO.C,D11*
G36*
X76703259Y-84918876D02*
X79611704Y-86865911D01*
X78220965Y-88943372D01*
X75312520Y-86996337D01*
X76703259Y-84918876D01*
X76703259Y-84918876D01*
G37*
D10*
G04 #@! TO.P,D11,1*
G04 #@! TO.N,Net-(D11-Pad1)*
X79297888Y-84188876D03*
D11*
G04 #@! TD*
G04 #@! TO.N,Net-(D11-Pad1)*
G04 #@! TO.C,D11*
G36*
X78539035Y-82176628D02*
X81447480Y-84123663D01*
X80056741Y-86201124D01*
X77148296Y-84254089D01*
X78539035Y-82176628D01*
X78539035Y-82176628D01*
G37*
D10*
G04 #@! TO.P,D12,2*
G04 #@! TO.N,Net-(D10-Pad1)*
X122535493Y-86932724D03*
D11*
G04 #@! TD*
G04 #@! TO.N,Net-(D10-Pad1)*
G04 #@! TO.C,D12*
G36*
X120386018Y-86863759D02*
X123297857Y-84921804D01*
X124684968Y-87001689D01*
X121773129Y-88943644D01*
X120386018Y-86863759D01*
X120386018Y-86863759D01*
G37*
D10*
G04 #@! TO.P,D12,1*
G04 #@! TO.N,Net-(D12-Pad1)*
X120704507Y-84187276D03*
D11*
G04 #@! TD*
G04 #@! TO.N,Net-(D12-Pad1)*
G04 #@! TO.C,D12*
G36*
X118555032Y-84118311D02*
X121466871Y-82176356D01*
X122853982Y-84256241D01*
X119942143Y-86198196D01*
X118555032Y-84118311D01*
X118555032Y-84118311D01*
G37*
D10*
G04 #@! TO.P,D13,2*
G04 #@! TO.N,Net-(D11-Pad1)*
X84187276Y-79295493D03*
D11*
G04 #@! TD*
G04 #@! TO.N,Net-(D11-Pad1)*
G04 #@! TO.C,D13*
G36*
X84256241Y-77146018D02*
X86198196Y-80057857D01*
X84118311Y-81444968D01*
X82176356Y-78533129D01*
X84256241Y-77146018D01*
X84256241Y-77146018D01*
G37*
D10*
G04 #@! TO.P,D13,1*
G04 #@! TO.N,Net-(D13-Pad1)*
X86932724Y-77464507D03*
D11*
G04 #@! TD*
G04 #@! TO.N,Net-(D13-Pad1)*
G04 #@! TO.C,D13*
G36*
X87001689Y-75315032D02*
X88943644Y-78226871D01*
X86863759Y-79613982D01*
X84921804Y-76702143D01*
X87001689Y-75315032D01*
X87001689Y-75315032D01*
G37*
D10*
G04 #@! TO.P,D14,2*
G04 #@! TO.N,Net-(D12-Pad1)*
X115811124Y-79297888D03*
D11*
G04 #@! TD*
G04 #@! TO.N,Net-(D12-Pad1)*
G04 #@! TO.C,D14*
G36*
X113798876Y-80056741D02*
X115745911Y-77148296D01*
X117823372Y-78539035D01*
X115876337Y-81447480D01*
X113798876Y-80056741D01*
X113798876Y-80056741D01*
G37*
D10*
G04 #@! TO.P,D14,1*
G04 #@! TO.N,Net-(D14-Pad1)*
X113068876Y-77462112D03*
D11*
G04 #@! TD*
G04 #@! TO.N,Net-(D14-Pad1)*
G04 #@! TO.C,D14*
G36*
X111056628Y-78220965D02*
X113003663Y-75312520D01*
X115081124Y-76703259D01*
X113134089Y-79611704D01*
X111056628Y-78220965D01*
X111056628Y-78220965D01*
G37*
D10*
G04 #@! TO.P,D15,2*
G04 #@! TO.N,Net-(D13-Pad1)*
X93311424Y-74820487D03*
D11*
G04 #@! TD*
G04 #@! TO.N,Net-(D13-Pad1)*
G04 #@! TO.C,D15*
G36*
X94197708Y-72861023D02*
X94877528Y-76294366D01*
X92425140Y-76779951D01*
X91745320Y-73346608D01*
X94197708Y-72861023D01*
X94197708Y-72861023D01*
G37*
D10*
G04 #@! TO.P,D15,1*
G04 #@! TO.N,Net-(D15-Pad1)*
X96548576Y-74179513D03*
D11*
G04 #@! TD*
G04 #@! TO.N,Net-(D15-Pad1)*
G04 #@! TO.C,D15*
G36*
X97434860Y-72220049D02*
X98114680Y-75653392D01*
X95662292Y-76138977D01*
X94982472Y-72705634D01*
X97434860Y-72220049D01*
X97434860Y-72220049D01*
G37*
G04 #@! TO.N,Net-(D16-Pad1)*
G04 #@! TO.C,R2*
G36*
X100649504Y-72776204D02*
X100673773Y-72779804D01*
X100697571Y-72785765D01*
X100720671Y-72794030D01*
X100742849Y-72804520D01*
X100763893Y-72817133D01*
X100783598Y-72831747D01*
X100801777Y-72848223D01*
X100818253Y-72866402D01*
X100832867Y-72886107D01*
X100845480Y-72907151D01*
X100855970Y-72929329D01*
X100864235Y-72952429D01*
X100870196Y-72976227D01*
X100873796Y-73000496D01*
X100875000Y-73025000D01*
X100875000Y-73950000D01*
X100873796Y-73974504D01*
X100870196Y-73998773D01*
X100864235Y-74022571D01*
X100855970Y-74045671D01*
X100845480Y-74067849D01*
X100832867Y-74088893D01*
X100818253Y-74108598D01*
X100801777Y-74126777D01*
X100783598Y-74143253D01*
X100763893Y-74157867D01*
X100742849Y-74170480D01*
X100720671Y-74180970D01*
X100697571Y-74189235D01*
X100673773Y-74195196D01*
X100649504Y-74198796D01*
X100625000Y-74200000D01*
X99375000Y-74200000D01*
X99350496Y-74198796D01*
X99326227Y-74195196D01*
X99302429Y-74189235D01*
X99279329Y-74180970D01*
X99257151Y-74170480D01*
X99236107Y-74157867D01*
X99216402Y-74143253D01*
X99198223Y-74126777D01*
X99181747Y-74108598D01*
X99167133Y-74088893D01*
X99154520Y-74067849D01*
X99144030Y-74045671D01*
X99135765Y-74022571D01*
X99129804Y-73998773D01*
X99126204Y-73974504D01*
X99125000Y-73950000D01*
X99125000Y-73025000D01*
X99126204Y-73000496D01*
X99129804Y-72976227D01*
X99135765Y-72952429D01*
X99144030Y-72929329D01*
X99154520Y-72907151D01*
X99167133Y-72886107D01*
X99181747Y-72866402D01*
X99198223Y-72848223D01*
X99216402Y-72831747D01*
X99236107Y-72817133D01*
X99257151Y-72804520D01*
X99279329Y-72794030D01*
X99302429Y-72785765D01*
X99326227Y-72779804D01*
X99350496Y-72776204D01*
X99375000Y-72775000D01*
X100625000Y-72775000D01*
X100649504Y-72776204D01*
X100649504Y-72776204D01*
G37*
D12*
G04 #@! TD*
G04 #@! TO.P,R2,1*
G04 #@! TO.N,Net-(D16-Pad1)*
X100000000Y-73487500D03*
D11*
G04 #@! TO.N,Net-(D15-Pad1)*
G04 #@! TO.C,R2*
G36*
X100649504Y-69801204D02*
X100673773Y-69804804D01*
X100697571Y-69810765D01*
X100720671Y-69819030D01*
X100742849Y-69829520D01*
X100763893Y-69842133D01*
X100783598Y-69856747D01*
X100801777Y-69873223D01*
X100818253Y-69891402D01*
X100832867Y-69911107D01*
X100845480Y-69932151D01*
X100855970Y-69954329D01*
X100864235Y-69977429D01*
X100870196Y-70001227D01*
X100873796Y-70025496D01*
X100875000Y-70050000D01*
X100875000Y-70975000D01*
X100873796Y-70999504D01*
X100870196Y-71023773D01*
X100864235Y-71047571D01*
X100855970Y-71070671D01*
X100845480Y-71092849D01*
X100832867Y-71113893D01*
X100818253Y-71133598D01*
X100801777Y-71151777D01*
X100783598Y-71168253D01*
X100763893Y-71182867D01*
X100742849Y-71195480D01*
X100720671Y-71205970D01*
X100697571Y-71214235D01*
X100673773Y-71220196D01*
X100649504Y-71223796D01*
X100625000Y-71225000D01*
X99375000Y-71225000D01*
X99350496Y-71223796D01*
X99326227Y-71220196D01*
X99302429Y-71214235D01*
X99279329Y-71205970D01*
X99257151Y-71195480D01*
X99236107Y-71182867D01*
X99216402Y-71168253D01*
X99198223Y-71151777D01*
X99181747Y-71133598D01*
X99167133Y-71113893D01*
X99154520Y-71092849D01*
X99144030Y-71070671D01*
X99135765Y-71047571D01*
X99129804Y-71023773D01*
X99126204Y-70999504D01*
X99125000Y-70975000D01*
X99125000Y-70050000D01*
X99126204Y-70025496D01*
X99129804Y-70001227D01*
X99135765Y-69977429D01*
X99144030Y-69954329D01*
X99154520Y-69932151D01*
X99167133Y-69911107D01*
X99181747Y-69891402D01*
X99198223Y-69873223D01*
X99216402Y-69856747D01*
X99236107Y-69842133D01*
X99257151Y-69829520D01*
X99279329Y-69819030D01*
X99302429Y-69810765D01*
X99326227Y-69804804D01*
X99350496Y-69801204D01*
X99375000Y-69800000D01*
X100625000Y-69800000D01*
X100649504Y-69801204D01*
X100649504Y-69801204D01*
G37*
D12*
G04 #@! TD*
G04 #@! TO.P,R2,2*
G04 #@! TO.N,Net-(D15-Pad1)*
X100000000Y-70512500D03*
D11*
G04 #@! TO.N,Net-(D1-Pad2)*
G04 #@! TO.C,R1*
G36*
X100649504Y-125801204D02*
X100673773Y-125804804D01*
X100697571Y-125810765D01*
X100720671Y-125819030D01*
X100742849Y-125829520D01*
X100763893Y-125842133D01*
X100783598Y-125856747D01*
X100801777Y-125873223D01*
X100818253Y-125891402D01*
X100832867Y-125911107D01*
X100845480Y-125932151D01*
X100855970Y-125954329D01*
X100864235Y-125977429D01*
X100870196Y-126001227D01*
X100873796Y-126025496D01*
X100875000Y-126050000D01*
X100875000Y-126975000D01*
X100873796Y-126999504D01*
X100870196Y-127023773D01*
X100864235Y-127047571D01*
X100855970Y-127070671D01*
X100845480Y-127092849D01*
X100832867Y-127113893D01*
X100818253Y-127133598D01*
X100801777Y-127151777D01*
X100783598Y-127168253D01*
X100763893Y-127182867D01*
X100742849Y-127195480D01*
X100720671Y-127205970D01*
X100697571Y-127214235D01*
X100673773Y-127220196D01*
X100649504Y-127223796D01*
X100625000Y-127225000D01*
X99375000Y-127225000D01*
X99350496Y-127223796D01*
X99326227Y-127220196D01*
X99302429Y-127214235D01*
X99279329Y-127205970D01*
X99257151Y-127195480D01*
X99236107Y-127182867D01*
X99216402Y-127168253D01*
X99198223Y-127151777D01*
X99181747Y-127133598D01*
X99167133Y-127113893D01*
X99154520Y-127092849D01*
X99144030Y-127070671D01*
X99135765Y-127047571D01*
X99129804Y-127023773D01*
X99126204Y-126999504D01*
X99125000Y-126975000D01*
X99125000Y-126050000D01*
X99126204Y-126025496D01*
X99129804Y-126001227D01*
X99135765Y-125977429D01*
X99144030Y-125954329D01*
X99154520Y-125932151D01*
X99167133Y-125911107D01*
X99181747Y-125891402D01*
X99198223Y-125873223D01*
X99216402Y-125856747D01*
X99236107Y-125842133D01*
X99257151Y-125829520D01*
X99279329Y-125819030D01*
X99302429Y-125810765D01*
X99326227Y-125804804D01*
X99350496Y-125801204D01*
X99375000Y-125800000D01*
X100625000Y-125800000D01*
X100649504Y-125801204D01*
X100649504Y-125801204D01*
G37*
D12*
G04 #@! TD*
G04 #@! TO.P,R1,2*
G04 #@! TO.N,Net-(D1-Pad2)*
X100000000Y-126512500D03*
D11*
G04 #@! TO.N,Net-(D2-Pad2)*
G04 #@! TO.C,R1*
G36*
X100649504Y-128776204D02*
X100673773Y-128779804D01*
X100697571Y-128785765D01*
X100720671Y-128794030D01*
X100742849Y-128804520D01*
X100763893Y-128817133D01*
X100783598Y-128831747D01*
X100801777Y-128848223D01*
X100818253Y-128866402D01*
X100832867Y-128886107D01*
X100845480Y-128907151D01*
X100855970Y-128929329D01*
X100864235Y-128952429D01*
X100870196Y-128976227D01*
X100873796Y-129000496D01*
X100875000Y-129025000D01*
X100875000Y-129950000D01*
X100873796Y-129974504D01*
X100870196Y-129998773D01*
X100864235Y-130022571D01*
X100855970Y-130045671D01*
X100845480Y-130067849D01*
X100832867Y-130088893D01*
X100818253Y-130108598D01*
X100801777Y-130126777D01*
X100783598Y-130143253D01*
X100763893Y-130157867D01*
X100742849Y-130170480D01*
X100720671Y-130180970D01*
X100697571Y-130189235D01*
X100673773Y-130195196D01*
X100649504Y-130198796D01*
X100625000Y-130200000D01*
X99375000Y-130200000D01*
X99350496Y-130198796D01*
X99326227Y-130195196D01*
X99302429Y-130189235D01*
X99279329Y-130180970D01*
X99257151Y-130170480D01*
X99236107Y-130157867D01*
X99216402Y-130143253D01*
X99198223Y-130126777D01*
X99181747Y-130108598D01*
X99167133Y-130088893D01*
X99154520Y-130067849D01*
X99144030Y-130045671D01*
X99135765Y-130022571D01*
X99129804Y-129998773D01*
X99126204Y-129974504D01*
X99125000Y-129950000D01*
X99125000Y-129025000D01*
X99126204Y-129000496D01*
X99129804Y-128976227D01*
X99135765Y-128952429D01*
X99144030Y-128929329D01*
X99154520Y-128907151D01*
X99167133Y-128886107D01*
X99181747Y-128866402D01*
X99198223Y-128848223D01*
X99216402Y-128831747D01*
X99236107Y-128817133D01*
X99257151Y-128804520D01*
X99279329Y-128794030D01*
X99302429Y-128785765D01*
X99326227Y-128779804D01*
X99350496Y-128776204D01*
X99375000Y-128775000D01*
X100625000Y-128775000D01*
X100649504Y-128776204D01*
X100649504Y-128776204D01*
G37*
D12*
G04 #@! TD*
G04 #@! TO.P,R1,1*
G04 #@! TO.N,Net-(D2-Pad2)*
X100000000Y-129487500D03*
D13*
G04 #@! TO.P,J2,1*
G04 #@! TO.N,Net-(D15-Pad1)*
X129900000Y-94000000D03*
D11*
G04 #@! TD*
G04 #@! TO.N,Net-(D15-Pad1)*
G04 #@! TO.C,J2*
G36*
X128914153Y-96743739D02*
X127942981Y-91838964D01*
X130885847Y-91256261D01*
X131857019Y-96161036D01*
X128914153Y-96743739D01*
X128914153Y-96743739D01*
G37*
D13*
G04 #@! TO.P,J1,1*
G04 #@! TO.N,Net-(D2-Pad2)*
X129900000Y-106100000D03*
D11*
G04 #@! TD*
G04 #@! TO.N,Net-(D2-Pad2)*
G04 #@! TO.C,J1*
G36*
X127942981Y-108261036D02*
X128914153Y-103356261D01*
X131857019Y-103938964D01*
X130885847Y-108843739D01*
X127942981Y-108261036D01*
X127942981Y-108261036D01*
G37*
D14*
G04 #@! TO.N,Net-(D1-Pad2)*
X97433370Y-126512500D02*
X96793168Y-125872298D01*
X100000000Y-126512500D02*
X97433370Y-126512500D01*
D15*
G04 #@! TO.N,Net-(D1-Pad1)*
X87138870Y-122676962D02*
X93066832Y-125127702D01*
G04 #@! TO.N,Net-(D2-Pad1)*
X106933815Y-125130955D02*
X112859287Y-122674204D01*
G04 #@! TO.N,Net-(D3-Pad1)*
X79434204Y-116020713D02*
X83981130Y-120563038D01*
G04 #@! TO.N,Net-(D4-Pad1)*
X116020713Y-120565796D02*
X120563038Y-116018870D01*
G04 #@! TO.N,Net-(D5-Pad1)*
X74869045Y-106933815D02*
X77325796Y-112859287D01*
G04 #@! TO.N,Net-(D6-Pad1)*
X122676962Y-112861130D02*
X125127702Y-106933168D01*
G04 #@! TO.N,Net-(D7-Pad1)*
X74127702Y-96793168D02*
X74130955Y-103206185D01*
G04 #@! TO.N,Net-(D10-Pad2)*
X125872298Y-103206832D02*
X125869045Y-96793815D01*
G04 #@! TO.N,Net-(D11-Pad2)*
X77323038Y-87138870D02*
X74872298Y-93066832D01*
G04 #@! TO.N,Net-(D10-Pad1)*
X122674204Y-87140713D02*
X125130955Y-93066185D01*
G04 #@! TO.N,Net-(D11-Pad1)*
X83979287Y-79434204D02*
X79436962Y-83981130D01*
G04 #@! TO.N,Net-(D12-Pad1)*
X116018870Y-79436962D02*
X120565796Y-83979287D01*
G04 #@! TO.N,Net-(D13-Pad1)*
X93066185Y-74869045D02*
X87140713Y-77325796D01*
G04 #@! TO.N,Net-(D14-Pad1)*
X106933168Y-74872298D02*
X112861130Y-77323038D01*
D14*
G04 #@! TO.N,Net-(D16-Pad1)*
X102566630Y-73487500D02*
X103206832Y-74127702D01*
X100000000Y-73487500D02*
X102566630Y-73487500D01*
G04 #@! TD*
D16*
G04 #@! TO.N,Net-(D2-Pad2)*
G36*
X130785277Y-105490341D02*
X130781392Y-105509959D01*
X130801012Y-105513844D01*
X130509659Y-106985277D01*
X130490041Y-106981392D01*
X130039708Y-109255737D01*
X130188792Y-109478435D01*
X130714501Y-109582528D01*
X130250585Y-111010312D01*
X129408855Y-113093666D01*
X128423849Y-115113229D01*
X127300364Y-117059161D01*
X126043875Y-118921983D01*
X124660503Y-120692619D01*
X123156987Y-122362442D01*
X121540652Y-123923318D01*
X119819374Y-125367642D01*
X118001538Y-126688378D01*
X116096000Y-127879090D01*
X114112044Y-128933978D01*
X112059335Y-129847903D01*
X109947875Y-130616411D01*
X107787950Y-131235760D01*
X105590082Y-131702931D01*
X103364980Y-132015649D01*
X101123485Y-132172390D01*
X99350000Y-132172390D01*
X99350000Y-130958000D01*
X99373000Y-130958000D01*
X99562500Y-130768500D01*
X99562500Y-129843750D01*
X100437500Y-129843750D01*
X100437500Y-130768500D01*
X100627000Y-130958000D01*
X101025775Y-130958000D01*
X101304372Y-130842602D01*
X101517601Y-130629373D01*
X101633000Y-130350776D01*
X101633000Y-130033250D01*
X101443500Y-129843750D01*
X100437500Y-129843750D01*
X99562500Y-129843750D01*
X99350000Y-129843750D01*
X99350000Y-129131250D01*
X99562500Y-129131250D01*
X99562500Y-128775000D01*
X100437500Y-128775000D01*
X100437500Y-129131250D01*
X101443500Y-129131250D01*
X101633000Y-128941750D01*
X101633000Y-128624224D01*
X101517601Y-128345627D01*
X101304372Y-128132398D01*
X101254832Y-128111878D01*
X101558784Y-127908784D01*
X101758693Y-127609599D01*
X101792290Y-127779277D01*
X101850862Y-128075085D01*
X102018175Y-128325962D01*
X102268760Y-128493713D01*
X102564465Y-128552801D01*
X103139576Y-128438926D01*
X103288659Y-128216228D01*
X102984003Y-126677600D01*
X102841765Y-126705764D01*
X102550412Y-125234331D01*
X102692651Y-125206167D01*
X102688766Y-125186548D01*
X103914960Y-124943755D01*
X103918845Y-124963374D01*
X104061083Y-124935210D01*
X104352436Y-126406643D01*
X104210197Y-126434807D01*
X104514853Y-127973435D01*
X104737552Y-128122519D01*
X105208391Y-128029290D01*
X105592518Y-128188794D01*
X106010233Y-128189158D01*
X108462621Y-127703573D01*
X108848680Y-127544057D01*
X109144307Y-127248945D01*
X109281740Y-126917971D01*
X112462258Y-125599302D01*
X112788537Y-125734785D01*
X113206253Y-125735149D01*
X113592311Y-125575633D01*
X115672196Y-124188522D01*
X115960830Y-123900391D01*
X116337759Y-123744647D01*
X118417644Y-122357536D01*
X118713271Y-122062424D01*
X118873461Y-121676645D01*
X118873774Y-121317916D01*
X121315971Y-118873245D01*
X121668906Y-118873553D01*
X122054965Y-118714037D01*
X122350592Y-118418925D01*
X123741331Y-116341464D01*
X123897732Y-115964810D01*
X124186368Y-115676677D01*
X125577107Y-113599216D01*
X125737297Y-113213437D01*
X125737661Y-112795722D01*
X125600533Y-112463847D01*
X126915976Y-109281994D01*
X127241832Y-109147353D01*
X127507761Y-108881888D01*
X127647847Y-108975314D01*
X128345577Y-109113469D01*
X128568276Y-108964385D01*
X129018608Y-106690041D01*
X128998988Y-106686156D01*
X129290341Y-105214723D01*
X129309959Y-105218608D01*
X129313844Y-105198988D01*
X130785277Y-105490341D01*
X130785277Y-105490341D01*
G37*
X130785277Y-105490341D02*
X130781392Y-105509959D01*
X130801012Y-105513844D01*
X130509659Y-106985277D01*
X130490041Y-106981392D01*
X130039708Y-109255737D01*
X130188792Y-109478435D01*
X130714501Y-109582528D01*
X130250585Y-111010312D01*
X129408855Y-113093666D01*
X128423849Y-115113229D01*
X127300364Y-117059161D01*
X126043875Y-118921983D01*
X124660503Y-120692619D01*
X123156987Y-122362442D01*
X121540652Y-123923318D01*
X119819374Y-125367642D01*
X118001538Y-126688378D01*
X116096000Y-127879090D01*
X114112044Y-128933978D01*
X112059335Y-129847903D01*
X109947875Y-130616411D01*
X107787950Y-131235760D01*
X105590082Y-131702931D01*
X103364980Y-132015649D01*
X101123485Y-132172390D01*
X99350000Y-132172390D01*
X99350000Y-130958000D01*
X99373000Y-130958000D01*
X99562500Y-130768500D01*
X99562500Y-129843750D01*
X100437500Y-129843750D01*
X100437500Y-130768500D01*
X100627000Y-130958000D01*
X101025775Y-130958000D01*
X101304372Y-130842602D01*
X101517601Y-130629373D01*
X101633000Y-130350776D01*
X101633000Y-130033250D01*
X101443500Y-129843750D01*
X100437500Y-129843750D01*
X99562500Y-129843750D01*
X99350000Y-129843750D01*
X99350000Y-129131250D01*
X99562500Y-129131250D01*
X99562500Y-128775000D01*
X100437500Y-128775000D01*
X100437500Y-129131250D01*
X101443500Y-129131250D01*
X101633000Y-128941750D01*
X101633000Y-128624224D01*
X101517601Y-128345627D01*
X101304372Y-128132398D01*
X101254832Y-128111878D01*
X101558784Y-127908784D01*
X101758693Y-127609599D01*
X101792290Y-127779277D01*
X101850862Y-128075085D01*
X102018175Y-128325962D01*
X102268760Y-128493713D01*
X102564465Y-128552801D01*
X103139576Y-128438926D01*
X103288659Y-128216228D01*
X102984003Y-126677600D01*
X102841765Y-126705764D01*
X102550412Y-125234331D01*
X102692651Y-125206167D01*
X102688766Y-125186548D01*
X103914960Y-124943755D01*
X103918845Y-124963374D01*
X104061083Y-124935210D01*
X104352436Y-126406643D01*
X104210197Y-126434807D01*
X104514853Y-127973435D01*
X104737552Y-128122519D01*
X105208391Y-128029290D01*
X105592518Y-128188794D01*
X106010233Y-128189158D01*
X108462621Y-127703573D01*
X108848680Y-127544057D01*
X109144307Y-127248945D01*
X109281740Y-126917971D01*
X112462258Y-125599302D01*
X112788537Y-125734785D01*
X113206253Y-125735149D01*
X113592311Y-125575633D01*
X115672196Y-124188522D01*
X115960830Y-123900391D01*
X116337759Y-123744647D01*
X118417644Y-122357536D01*
X118713271Y-122062424D01*
X118873461Y-121676645D01*
X118873774Y-121317916D01*
X121315971Y-118873245D01*
X121668906Y-118873553D01*
X122054965Y-118714037D01*
X122350592Y-118418925D01*
X123741331Y-116341464D01*
X123897732Y-115964810D01*
X124186368Y-115676677D01*
X125577107Y-113599216D01*
X125737297Y-113213437D01*
X125737661Y-112795722D01*
X125600533Y-112463847D01*
X126915976Y-109281994D01*
X127241832Y-109147353D01*
X127507761Y-108881888D01*
X127647847Y-108975314D01*
X128345577Y-109113469D01*
X128568276Y-108964385D01*
X129018608Y-106690041D01*
X128998988Y-106686156D01*
X129290341Y-105214723D01*
X129309959Y-105218608D01*
X129313844Y-105198988D01*
X130785277Y-105490341D01*
G04 #@! TO.N,Net-(D15-Pad1)*
G36*
X103364980Y-67984351D02*
X105590082Y-68297069D01*
X107787950Y-68764240D01*
X109947875Y-69383589D01*
X112059335Y-70152097D01*
X114112044Y-71066022D01*
X116096000Y-72120910D01*
X118001538Y-73311622D01*
X119819374Y-74632358D01*
X121540652Y-76076682D01*
X123156987Y-77637558D01*
X124660503Y-79307381D01*
X126043875Y-81078017D01*
X127300364Y-82940839D01*
X128423849Y-84886771D01*
X129408855Y-86906334D01*
X130250585Y-88989688D01*
X130745029Y-90511427D01*
X130188792Y-90621565D01*
X130039708Y-90844263D01*
X130490041Y-93118608D01*
X130509659Y-93114723D01*
X130801012Y-94586156D01*
X130781392Y-94590041D01*
X130785277Y-94609659D01*
X129313844Y-94901012D01*
X129309959Y-94881392D01*
X129290341Y-94885277D01*
X128998988Y-93413844D01*
X129018608Y-93409959D01*
X128568276Y-91135615D01*
X128345577Y-90986531D01*
X127647847Y-91124686D01*
X127557852Y-91184706D01*
X127544057Y-91151320D01*
X127248945Y-90855693D01*
X126917971Y-90718260D01*
X125599301Y-87537743D01*
X125734785Y-87211463D01*
X125735149Y-86793747D01*
X125575633Y-86407689D01*
X124188522Y-84327804D01*
X123900391Y-84039170D01*
X123744647Y-83662241D01*
X122357536Y-81582356D01*
X122062424Y-81286729D01*
X121676645Y-81126539D01*
X121317917Y-81126226D01*
X118873245Y-78684030D01*
X118873553Y-78331094D01*
X118714037Y-77945035D01*
X118418925Y-77649408D01*
X116341464Y-76258669D01*
X115964810Y-76102268D01*
X115676677Y-75813632D01*
X113599216Y-74422893D01*
X113213437Y-74262703D01*
X112795722Y-74262339D01*
X112463847Y-74399467D01*
X109281994Y-73084024D01*
X109147353Y-72758168D01*
X108852241Y-72462541D01*
X108466462Y-72302351D01*
X106014925Y-71812486D01*
X105607090Y-71812131D01*
X105230434Y-71655729D01*
X102778897Y-71165864D01*
X102361181Y-71165500D01*
X101975123Y-71325016D01*
X101679496Y-71620128D01*
X101547711Y-71937500D01*
X101328732Y-71937500D01*
X101254832Y-71888122D01*
X101304372Y-71867602D01*
X101517601Y-71654373D01*
X101633000Y-71375776D01*
X101633000Y-71058250D01*
X101443500Y-70868750D01*
X100437500Y-70868750D01*
X100437500Y-71225000D01*
X99562500Y-71225000D01*
X99562500Y-70868750D01*
X98556500Y-70868750D01*
X98367000Y-71058250D01*
X98367000Y-71375776D01*
X98482399Y-71654373D01*
X98695628Y-71867602D01*
X98745168Y-71888122D01*
X98441216Y-72091216D01*
X98241307Y-72390401D01*
X98207710Y-72220723D01*
X98149138Y-71924915D01*
X97981825Y-71674038D01*
X97731240Y-71506287D01*
X97435535Y-71447199D01*
X96860424Y-71561074D01*
X96711341Y-71783772D01*
X97015997Y-73322400D01*
X97158235Y-73294236D01*
X97449588Y-74765669D01*
X97307349Y-74793833D01*
X97311234Y-74813452D01*
X96085040Y-75056245D01*
X96081155Y-75036626D01*
X95938917Y-75064790D01*
X95647564Y-73593357D01*
X95789803Y-73565193D01*
X95485147Y-72026565D01*
X95262448Y-71877481D01*
X95107820Y-71908098D01*
X94670619Y-69649224D01*
X98367000Y-69649224D01*
X98367000Y-69966750D01*
X98556500Y-70156250D01*
X99562500Y-70156250D01*
X99562500Y-69231500D01*
X100437500Y-69231500D01*
X100437500Y-70156250D01*
X101443500Y-70156250D01*
X101633000Y-69966750D01*
X101633000Y-69649224D01*
X101517601Y-69370627D01*
X101304372Y-69157398D01*
X101025775Y-69042000D01*
X100627000Y-69042000D01*
X100437500Y-69231500D01*
X99562500Y-69231500D01*
X99373000Y-69042000D01*
X98974225Y-69042000D01*
X98695628Y-69157398D01*
X98482399Y-69370627D01*
X98367000Y-69649224D01*
X94670619Y-69649224D01*
X94408951Y-68297275D01*
X94409918Y-68297069D01*
X96635020Y-67984351D01*
X98876515Y-67827610D01*
X101123485Y-67827610D01*
X103364980Y-67984351D01*
X103364980Y-67984351D01*
G37*
X103364980Y-67984351D02*
X105590082Y-68297069D01*
X107787950Y-68764240D01*
X109947875Y-69383589D01*
X112059335Y-70152097D01*
X114112044Y-71066022D01*
X116096000Y-72120910D01*
X118001538Y-73311622D01*
X119819374Y-74632358D01*
X121540652Y-76076682D01*
X123156987Y-77637558D01*
X124660503Y-79307381D01*
X126043875Y-81078017D01*
X127300364Y-82940839D01*
X128423849Y-84886771D01*
X129408855Y-86906334D01*
X130250585Y-88989688D01*
X130745029Y-90511427D01*
X130188792Y-90621565D01*
X130039708Y-90844263D01*
X130490041Y-93118608D01*
X130509659Y-93114723D01*
X130801012Y-94586156D01*
X130781392Y-94590041D01*
X130785277Y-94609659D01*
X129313844Y-94901012D01*
X129309959Y-94881392D01*
X129290341Y-94885277D01*
X128998988Y-93413844D01*
X129018608Y-93409959D01*
X128568276Y-91135615D01*
X128345577Y-90986531D01*
X127647847Y-91124686D01*
X127557852Y-91184706D01*
X127544057Y-91151320D01*
X127248945Y-90855693D01*
X126917971Y-90718260D01*
X125599301Y-87537743D01*
X125734785Y-87211463D01*
X125735149Y-86793747D01*
X125575633Y-86407689D01*
X124188522Y-84327804D01*
X123900391Y-84039170D01*
X123744647Y-83662241D01*
X122357536Y-81582356D01*
X122062424Y-81286729D01*
X121676645Y-81126539D01*
X121317917Y-81126226D01*
X118873245Y-78684030D01*
X118873553Y-78331094D01*
X118714037Y-77945035D01*
X118418925Y-77649408D01*
X116341464Y-76258669D01*
X115964810Y-76102268D01*
X115676677Y-75813632D01*
X113599216Y-74422893D01*
X113213437Y-74262703D01*
X112795722Y-74262339D01*
X112463847Y-74399467D01*
X109281994Y-73084024D01*
X109147353Y-72758168D01*
X108852241Y-72462541D01*
X108466462Y-72302351D01*
X106014925Y-71812486D01*
X105607090Y-71812131D01*
X105230434Y-71655729D01*
X102778897Y-71165864D01*
X102361181Y-71165500D01*
X101975123Y-71325016D01*
X101679496Y-71620128D01*
X101547711Y-71937500D01*
X101328732Y-71937500D01*
X101254832Y-71888122D01*
X101304372Y-71867602D01*
X101517601Y-71654373D01*
X101633000Y-71375776D01*
X101633000Y-71058250D01*
X101443500Y-70868750D01*
X100437500Y-70868750D01*
X100437500Y-71225000D01*
X99562500Y-71225000D01*
X99562500Y-70868750D01*
X98556500Y-70868750D01*
X98367000Y-71058250D01*
X98367000Y-71375776D01*
X98482399Y-71654373D01*
X98695628Y-71867602D01*
X98745168Y-71888122D01*
X98441216Y-72091216D01*
X98241307Y-72390401D01*
X98207710Y-72220723D01*
X98149138Y-71924915D01*
X97981825Y-71674038D01*
X97731240Y-71506287D01*
X97435535Y-71447199D01*
X96860424Y-71561074D01*
X96711341Y-71783772D01*
X97015997Y-73322400D01*
X97158235Y-73294236D01*
X97449588Y-74765669D01*
X97307349Y-74793833D01*
X97311234Y-74813452D01*
X96085040Y-75056245D01*
X96081155Y-75036626D01*
X95938917Y-75064790D01*
X95647564Y-73593357D01*
X95789803Y-73565193D01*
X95485147Y-72026565D01*
X95262448Y-71877481D01*
X95107820Y-71908098D01*
X94670619Y-69649224D01*
X98367000Y-69649224D01*
X98367000Y-69966750D01*
X98556500Y-70156250D01*
X99562500Y-70156250D01*
X99562500Y-69231500D01*
X100437500Y-69231500D01*
X100437500Y-70156250D01*
X101443500Y-70156250D01*
X101633000Y-69966750D01*
X101633000Y-69649224D01*
X101517601Y-69370627D01*
X101304372Y-69157398D01*
X101025775Y-69042000D01*
X100627000Y-69042000D01*
X100437500Y-69231500D01*
X99562500Y-69231500D01*
X99373000Y-69042000D01*
X98974225Y-69042000D01*
X98695628Y-69157398D01*
X98482399Y-69370627D01*
X98367000Y-69649224D01*
X94670619Y-69649224D01*
X94408951Y-68297275D01*
X94409918Y-68297069D01*
X96635020Y-67984351D01*
X98876515Y-67827610D01*
X101123485Y-67827610D01*
X103364980Y-67984351D01*
D17*
G36*
X93903252Y-71955816D02*
X91561738Y-72419447D01*
X91220903Y-72560277D01*
X90959906Y-72820819D01*
X90818481Y-73161407D01*
X90818470Y-73173634D01*
X87533472Y-74535623D01*
X87527478Y-74529618D01*
X87186890Y-74388193D01*
X86818106Y-74387871D01*
X86477272Y-74528701D01*
X84397387Y-75915812D01*
X84136390Y-76176354D01*
X84118724Y-76218897D01*
X84072658Y-76218857D01*
X83731824Y-76359687D01*
X81651939Y-77746798D01*
X81390942Y-78007340D01*
X81249517Y-78347928D01*
X81249195Y-78716712D01*
X81253964Y-78728253D01*
X78731830Y-81252942D01*
X78724236Y-81249789D01*
X78355452Y-81249467D01*
X78014618Y-81390297D01*
X77753621Y-81650839D01*
X76362882Y-83728300D01*
X76221457Y-84068888D01*
X76221417Y-84114953D01*
X76178842Y-84132545D01*
X75917845Y-84393087D01*
X74527106Y-86470548D01*
X74385681Y-86811136D01*
X74385359Y-87179920D01*
X74526189Y-87520754D01*
X74535198Y-87529779D01*
X73176543Y-90816158D01*
X73168585Y-90816151D01*
X72827751Y-90956981D01*
X72566754Y-91217523D01*
X72425329Y-91558112D01*
X71935464Y-94009649D01*
X71935142Y-94378432D01*
X71952733Y-94421006D01*
X71920132Y-94453551D01*
X71778707Y-94794140D01*
X71288842Y-97245677D01*
X71288520Y-97614460D01*
X71429350Y-97955294D01*
X71689892Y-98216291D01*
X71701427Y-98221081D01*
X71703230Y-101775670D01*
X71695632Y-101778809D01*
X71434635Y-102039351D01*
X71293210Y-102379939D01*
X71292888Y-102748722D01*
X71778473Y-105201110D01*
X71919303Y-105541945D01*
X71951849Y-105574548D01*
X71934184Y-105617091D01*
X71933862Y-105985874D01*
X72419447Y-108438262D01*
X72560277Y-108779097D01*
X72820819Y-109040094D01*
X73161407Y-109181519D01*
X73173634Y-109181530D01*
X74535622Y-112466528D01*
X74529618Y-112472522D01*
X74388193Y-112813110D01*
X74387871Y-113181894D01*
X74528701Y-113522728D01*
X75915812Y-115602613D01*
X76176354Y-115863610D01*
X76218897Y-115881276D01*
X76218857Y-115927342D01*
X76359687Y-116268176D01*
X77746798Y-118348061D01*
X78007340Y-118609058D01*
X78347928Y-118750483D01*
X78716712Y-118750805D01*
X78728253Y-118746036D01*
X81252942Y-121268171D01*
X81249789Y-121275764D01*
X81249467Y-121644548D01*
X81390297Y-121985382D01*
X81650839Y-122246379D01*
X83728300Y-123637118D01*
X84068888Y-123778543D01*
X84114953Y-123778583D01*
X84132545Y-123821158D01*
X84393087Y-124082155D01*
X86470548Y-125472894D01*
X86811136Y-125614319D01*
X87179920Y-125614641D01*
X87520754Y-125473811D01*
X87529780Y-125464801D01*
X90816158Y-126823457D01*
X90816151Y-126831415D01*
X90956981Y-127172249D01*
X91217523Y-127433246D01*
X91558112Y-127574671D01*
X94009649Y-128064536D01*
X94378432Y-128064858D01*
X94421006Y-128047267D01*
X94453551Y-128079868D01*
X94794140Y-128221293D01*
X97245677Y-128711158D01*
X97614460Y-128711480D01*
X97955294Y-128570650D01*
X98173000Y-128353324D01*
X98173000Y-132246420D01*
X96622163Y-132137975D01*
X94388559Y-131824063D01*
X92182294Y-131355106D01*
X90014116Y-130733391D01*
X87894588Y-129961946D01*
X85834036Y-129044530D01*
X83842500Y-127985611D01*
X81929681Y-126790349D01*
X80104899Y-125464568D01*
X78377044Y-124014725D01*
X76754534Y-122447885D01*
X75245274Y-120771682D01*
X73856616Y-118994280D01*
X72595326Y-117124341D01*
X71467549Y-115170974D01*
X70478779Y-113143695D01*
X69633833Y-111052381D01*
X68936828Y-108907221D01*
X68391160Y-106718666D01*
X67999487Y-104497379D01*
X67763718Y-102254180D01*
X67685000Y-100000000D01*
X67763718Y-97745820D01*
X67999487Y-95502621D01*
X68391160Y-93281334D01*
X68936828Y-91092779D01*
X69633833Y-88947619D01*
X70478779Y-86856305D01*
X71467549Y-84829026D01*
X72595326Y-82875659D01*
X73856616Y-81005720D01*
X75245274Y-79228318D01*
X76754534Y-77552115D01*
X78377044Y-75985275D01*
X80104899Y-74535432D01*
X81929681Y-73209651D01*
X83842500Y-72014389D01*
X85834036Y-70955470D01*
X87894588Y-70038054D01*
X90014116Y-69266609D01*
X92182294Y-68644894D01*
X93212615Y-68425892D01*
X93903252Y-71955816D01*
X93903252Y-71955816D01*
G37*
X93903252Y-71955816D02*
X91561738Y-72419447D01*
X91220903Y-72560277D01*
X90959906Y-72820819D01*
X90818481Y-73161407D01*
X90818470Y-73173634D01*
X87533472Y-74535623D01*
X87527478Y-74529618D01*
X87186890Y-74388193D01*
X86818106Y-74387871D01*
X86477272Y-74528701D01*
X84397387Y-75915812D01*
X84136390Y-76176354D01*
X84118724Y-76218897D01*
X84072658Y-76218857D01*
X83731824Y-76359687D01*
X81651939Y-77746798D01*
X81390942Y-78007340D01*
X81249517Y-78347928D01*
X81249195Y-78716712D01*
X81253964Y-78728253D01*
X78731830Y-81252942D01*
X78724236Y-81249789D01*
X78355452Y-81249467D01*
X78014618Y-81390297D01*
X77753621Y-81650839D01*
X76362882Y-83728300D01*
X76221457Y-84068888D01*
X76221417Y-84114953D01*
X76178842Y-84132545D01*
X75917845Y-84393087D01*
X74527106Y-86470548D01*
X74385681Y-86811136D01*
X74385359Y-87179920D01*
X74526189Y-87520754D01*
X74535198Y-87529779D01*
X73176543Y-90816158D01*
X73168585Y-90816151D01*
X72827751Y-90956981D01*
X72566754Y-91217523D01*
X72425329Y-91558112D01*
X71935464Y-94009649D01*
X71935142Y-94378432D01*
X71952733Y-94421006D01*
X71920132Y-94453551D01*
X71778707Y-94794140D01*
X71288842Y-97245677D01*
X71288520Y-97614460D01*
X71429350Y-97955294D01*
X71689892Y-98216291D01*
X71701427Y-98221081D01*
X71703230Y-101775670D01*
X71695632Y-101778809D01*
X71434635Y-102039351D01*
X71293210Y-102379939D01*
X71292888Y-102748722D01*
X71778473Y-105201110D01*
X71919303Y-105541945D01*
X71951849Y-105574548D01*
X71934184Y-105617091D01*
X71933862Y-105985874D01*
X72419447Y-108438262D01*
X72560277Y-108779097D01*
X72820819Y-109040094D01*
X73161407Y-109181519D01*
X73173634Y-109181530D01*
X74535622Y-112466528D01*
X74529618Y-112472522D01*
X74388193Y-112813110D01*
X74387871Y-113181894D01*
X74528701Y-113522728D01*
X75915812Y-115602613D01*
X76176354Y-115863610D01*
X76218897Y-115881276D01*
X76218857Y-115927342D01*
X76359687Y-116268176D01*
X77746798Y-118348061D01*
X78007340Y-118609058D01*
X78347928Y-118750483D01*
X78716712Y-118750805D01*
X78728253Y-118746036D01*
X81252942Y-121268171D01*
X81249789Y-121275764D01*
X81249467Y-121644548D01*
X81390297Y-121985382D01*
X81650839Y-122246379D01*
X83728300Y-123637118D01*
X84068888Y-123778543D01*
X84114953Y-123778583D01*
X84132545Y-123821158D01*
X84393087Y-124082155D01*
X86470548Y-125472894D01*
X86811136Y-125614319D01*
X87179920Y-125614641D01*
X87520754Y-125473811D01*
X87529780Y-125464801D01*
X90816158Y-126823457D01*
X90816151Y-126831415D01*
X90956981Y-127172249D01*
X91217523Y-127433246D01*
X91558112Y-127574671D01*
X94009649Y-128064536D01*
X94378432Y-128064858D01*
X94421006Y-128047267D01*
X94453551Y-128079868D01*
X94794140Y-128221293D01*
X97245677Y-128711158D01*
X97614460Y-128711480D01*
X97955294Y-128570650D01*
X98173000Y-128353324D01*
X98173000Y-132246420D01*
X96622163Y-132137975D01*
X94388559Y-131824063D01*
X92182294Y-131355106D01*
X90014116Y-130733391D01*
X87894588Y-129961946D01*
X85834036Y-129044530D01*
X83842500Y-127985611D01*
X81929681Y-126790349D01*
X80104899Y-125464568D01*
X78377044Y-124014725D01*
X76754534Y-122447885D01*
X75245274Y-120771682D01*
X73856616Y-118994280D01*
X72595326Y-117124341D01*
X71467549Y-115170974D01*
X70478779Y-113143695D01*
X69633833Y-111052381D01*
X68936828Y-108907221D01*
X68391160Y-106718666D01*
X67999487Y-104497379D01*
X67763718Y-102254180D01*
X67685000Y-100000000D01*
X67763718Y-97745820D01*
X67999487Y-95502621D01*
X68391160Y-93281334D01*
X68936828Y-91092779D01*
X69633833Y-88947619D01*
X70478779Y-86856305D01*
X71467549Y-84829026D01*
X72595326Y-82875659D01*
X73856616Y-81005720D01*
X75245274Y-79228318D01*
X76754534Y-77552115D01*
X78377044Y-75985275D01*
X80104899Y-74535432D01*
X81929681Y-73209651D01*
X83842500Y-72014389D01*
X85834036Y-70955470D01*
X87894588Y-70038054D01*
X90014116Y-69266609D01*
X92182294Y-68644894D01*
X93212615Y-68425892D01*
X93903252Y-71955816D01*
G04 #@! TD*
M02*
